<svg xmlns="http://www.w3.org/2000/svg" width="70.968" height="70.968" viewBox="0 0 70.968 70.968">
  <g id="Group_3221" data-name="Group 3221" transform="translate(-422.924 -128.515)">
    <g id="layer1" transform="translate(422.924 128.515)">
      <g id="g3460" transform="translate(0 0)">
        <path id="path3462" d="M-113.523-12.268A31.535,31.535,0,0,0-135.9-2.992a31.518,31.518,0,0,0-9.272,22.377A31.51,31.51,0,0,0-135.9,41.753a31.566,31.566,0,0,0,22.377,9.275,31.542,31.542,0,0,0,22.375-9.275,31.51,31.51,0,0,0,9.262-22.367A31.518,31.518,0,0,0-91.148-2.992a31.511,31.511,0,0,0-22.375-9.277m0-3.835A35.487,35.487,0,0,1-78.041,19.385a35.483,35.483,0,0,1-35.482,35.48,35.489,35.489,0,0,1-35.486-35.48A35.492,35.492,0,0,1-113.523-16.1" transform="translate(149.009 16.103)" fill="#fff"/>
      </g>
      <g id="g3464" transform="translate(9.077 25.99)">
        <path id="path3466" d="M-30.8-29.46A3.058,3.058,0,0,0-34.111-32.7H-35.3v6.488h1.155A3.052,3.052,0,0,0-30.8-29.46m21.148,2.334-8.758,6.9-8-6.3a7.736,7.736,0,0,1-7.161,4.7h-6.851V-37.09h6.851a7.679,7.679,0,0,1,7.158,4.717l8.007-6.3,2.966,2.334-7.338,5.768,1.41,1.1,7.336-5.764,2.97,2.328L-18.4-27.126l1.408,1.106L-9.648-31.8v-5.3h5.324v10.807H.986v4.473H-9.648v-5.315Zm17.378.844h5.309v4.471H2.4V-37.09H7.73Z" transform="translate(40.423 38.669)" fill="#fff"/>
      </g>
    </g>
  </g>
</svg>
