<svg xmlns="http://www.w3.org/2000/svg" width="469.537" height="485.541" viewBox="0 0 469.537 485.541">
  <g id="Group_707" data-name="Group 707" transform="translate(750.174 -824.599)">
    <path id="path14" d="M486.207-284.766l22.625-13.063L486.207-310.89l-22.627,13.061-22.625,13.063L463.581-271.7l22.627,13.063L508.832-271.7l-22.625-13.063" transform="translate(-1064.08 1325.119)" fill="#d9effb"/>
    <path id="path16" d="M479.736-300.82v-95.795l22.625-13.061v95.793L479.736-300.82" transform="translate(-1057.609 1308.634)" fill="#263c7a"/>
    <path id="path18" d="M482.972-396.614l-22.627-13.061v95.793l22.627,13.063v-95.795" transform="translate(-1060.845 1308.634)" fill="#4067b1"/>
    <path id="path20" d="M505.6-407.807l-22.625-13.065-22.627,13.065,22.627,13.061L505.6-407.807" transform="translate(-1060.845 1306.766)" fill="#d9effb"/>
    <path id="path22" d="M502.361-310.786l-22.625-13.063v8.707l22.625,13.064v-8.709" transform="translate(-1057.609 1322.957)" fill="#8cd147"/>
    <path id="path24" d="M460.345-293.359V-363.03l22.627-13.063v69.669l-22.627,13.064" transform="translate(-1060.845 1314.238)" fill="#c23222"/>
    <path id="path26" d="M463.581-363.03l-22.625-13.063v69.669l22.625,13.064V-363.03" transform="translate(-1064.08 1314.238)" fill="#dc4220"/>
    <path id="path28" d="M486.207-374.225l-22.627-13.061-22.625,13.061,22.625,13.063,22.627-13.063" transform="translate(-1064.08 1312.37)" fill="#ef4b26"/>
    <path id="path30" d="M460.345-293.359V-363.03l22.627-13.063v69.669l-22.627,13.064" transform="translate(-1060.845 1314.238)" fill="#4067b1"/>
    <path id="path32" d="M463.581-363.03l-22.625-13.063v69.669l22.625,13.064V-363.03" transform="translate(-1064.08 1314.238)" fill="#5f92d3"/>
    <path id="path34" d="M486.207-374.225l-22.627-13.061-22.625,13.061,22.625,13.063,22.627-13.063" transform="translate(-1064.08 1312.37)" fill="#d9effb"/>
    <path id="path36" d="M479.736-286.525v-39.189l22.625-13.061v39.189l-22.625,13.061" transform="translate(-1057.609 1320.466)" fill="#263c7a"/>
    <path id="path38" d="M482.972-325.714l-22.627-13.061v39.189l22.627,13.061v-39.189" transform="translate(-1060.845 1320.466)" fill="#4067b1"/>
    <path id="path40" d="M505.6-336.907l-22.625-13.064-22.627,13.064,22.627,13.061L505.6-336.907" transform="translate(-1060.845 1318.597)" fill="#d9effb"/>
    <path id="path254" d="M586.084-59.343,415.211-158c-4.835-2.791-4.229-7.665,1.354-10.887l116.352-67.155c5.581-3.222,14.025-3.572,18.859-.782l170.871,98.656c4.835,2.79,4.229,7.665-1.354,10.887L604.943-60.123c-5.583,3.222-14.026,3.571-18.859.781" transform="translate(-1068.921 1337.165)" fill="#d9effb"/>
    <path id="path256" d="M710.18-304.353l-173.694-100.2c-2.235-1.29-4.291-1.49-5.945-.8l.006-.019-.283.132-.07.032-5.654,2.661,6.137,3.056-.011.338.053,142.662c0,7.138,4.419,15.473,9.869,18.618l169.061,97.525.962,7.957,6.173-2.945c2.032-1.2,3.321-3.9,3.32-7.742l-.054-142.661c0-7.139-4.421-15.475-9.869-18.616" transform="translate(-1050.132 1309.291)" fill="#263c7a"/>
    <path id="path258" d="M710.18-304.353l-173.694-100.2c-2.235-1.29-4.291-1.49-5.945-.8l.006-.019-.283.132-.07.032-5.654,2.661,6.137,3.056-.011.338.034,94.024,79.047,62.455,107.329-54.014a19.462,19.462,0,0,0-6.9-7.666" transform="translate(-1050.132 1309.291)" fill="#4067b1"/>
    <path id="path260" d="M688.553-316.93l-17.022,7.161,12.852,9.9,10.733-4.568a24.992,24.992,0,0,0-6.563-12.493" transform="translate(-1025.603 1324.111)" fill="#2e4b8d"/>
    <path id="path262" d="M705.045-133.529l-173.694-100.2c-5.448-3.141-9.866-11.477-9.869-18.616l-.053-142.662c0-7.138,4.41-10.379,9.86-7.237l173.692,100.2c5.448,3.143,9.867,11.478,9.869,18.616l.053,142.662c0,7.138-4.41,10.378-9.858,7.237" transform="translate(-1050.651 1309.674)" fill="#d9effb"/>
    <path id="path264" d="M698.331-145.637l-162.22-93.533c-4.985-2.877-9.028-10.5-9.031-17.038l-.05-130.546c0-6.534,4.038-9.5,9.023-6.622l162.22,93.535c4.986,2.875,9.029,10.5,9.031,17.036l.049,130.546c0,6.534-4.038,9.5-9.023,6.622" transform="translate(-1049.717 1311.171)" fill="#fff"/>
    <path id="path266" d="M698.331-145.637l-162.22-93.533c-4.985-2.877-9.028-10.5-9.031-17.038l-.05-130.546c0-6.534,4.038-9.5,9.023-6.622l162.22,93.535c4.986,2.875,9.029,10.5,9.031,17.036l.049,130.546c0,6.534-4.038,9.5-9.023,6.622" transform="translate(-1049.717 1311.171)" fill="#fff"/>
    <path id="path268" d="M725.907-155.173l-23.356-3.084L551.775-245.306c-4.834-2.791-13.278-2.441-18.859.781l-106.839,61.66-14.124-1.865v8.015l.016,0c-.095,1.851.96,3.634,3.242,4.949L586.083-73.11c4.833,2.791,13.277,2.441,18.859-.781l116.351-67.155c3.141-1.812,4.706-4.147,4.615-6.34v-7.787" transform="translate(-1068.92 1335.749)" fill="#263c7a"/>
    <path id="path270" d="M612.619-214.586l-10.712-6.185H484.137l-58.061,33.5-14.124-1.865v8.015l.016,0c-.095,1.851.96,3.634,3.242,4.949L586.083-77.519a17.683,17.683,0,0,0,9.733,1.825l16.8-138.892" transform="translate(-1068.92 1340.157)" fill="#4067b1"/>
    <path id="path272" d="M418.221-192.835l-6.269-.827v8.015l.015,0c-.094,1.851.96,3.634,3.242,4.949l3.011,1.74v-13.878" transform="translate(-1068.92 1344.681)" fill="#5f92d3"/>
    <path id="path274" d="M562.654-94.622c4.582,1.738,11.134,1.358,16.025-.995v-17.874H562.654v18.869" transform="translate(-1043.772 1358.06)" fill="#2e4b8d"/>
    <path id="path276" d="M586.084-79.214,415.211-177.868c-4.835-2.79-4.229-7.665,1.354-10.888l116.352-67.152c5.581-3.225,14.025-3.574,18.859-.782l170.871,98.653c4.835,2.791,4.229,7.666-1.354,10.888L604.943-80c-5.583,3.223-14.026,3.573-18.859.782" transform="translate(-1068.921 1333.849)" fill="#d9effb"/>
    <path id="path278" d="M721.292-160.729,604.942-93.578c-5.583,3.223-14.026,3.574-18.859.782L415.209-191.448a6.352,6.352,0,0,1-3.005-3.287c-.756,2.286.208,4.6,3.005,6.213L586.082-89.868c4.833,2.791,13.277,2.441,18.859-.782L721.292-157.8c3.752-2.166,5.245-5.076,4.361-7.6a9.094,9.094,0,0,1-4.361,4.675" transform="translate(-1068.92 1344.502)" fill="#fff"/>
    <path id="path280" d="M478.192-215.759l-7.733-4.463c-.621-.359-.542-.985.175-1.4l9.124-5.267a2.692,2.692,0,0,1,2.423-.1l7.731,4.464c.62.359.544.985-.174,1.4l-9.125,5.268a2.688,2.688,0,0,1-2.421.1" transform="translate(-1059.227 1339.079)" fill="#263c7a"/>
    <path id="path282" d="M488.423-209.851l-7.733-4.463c-.62-.359-.541-.985.175-1.4l9.125-5.268a2.691,2.691,0,0,1,2.423-.1l7.731,4.463c.62.359.544.985-.173,1.4l-9.127,5.268a2.688,2.688,0,0,1-2.421.1" transform="translate(-1057.519 1340.065)" fill="#263c7a"/>
    <path id="path284" d="M498.656-203.944l-7.733-4.463c-.62-.359-.542-.985.175-1.4l9.125-5.27a2.7,2.7,0,0,1,2.423-.1l7.731,4.464c.62.358.544.982-.173,1.4l-9.127,5.268a2.688,2.688,0,0,1-2.421.1" transform="translate(-1055.812 1341.051)" fill="#263c7a"/>
    <path id="path286" d="M512.807-208.943l-7.731-4.464c-.621-.358-.544-.984.174-1.4l7.66-4.424a2.7,2.7,0,0,1,2.423-.1l7.731,4.464c.62.358.542.982-.173,1.4l-7.662,4.424a2.7,2.7,0,0,1-2.421.1" transform="translate(-1053.45 1340.358)" fill="#263c7a"/>
    <path id="path288" d="M523.039-203.036l-7.731-4.464c-.621-.358-.544-.984.174-1.4l7.66-4.422a2.7,2.7,0,0,1,2.423-.1l7.731,4.464c.62.356.542.984-.173,1.4l-7.662,4.424a2.693,2.693,0,0,1-2.421.1" transform="translate(-1051.743 1341.344)" fill="#263c7a"/>
    <path id="path290" d="M533.272-197.129l-7.731-4.463c-.623-.359-.544-.985.174-1.4l7.66-4.422a2.691,2.691,0,0,1,2.423-.1l7.731,4.463c.62.359.542.985-.174,1.4l-7.661,4.422a2.683,2.683,0,0,1-2.421.1" transform="translate(-1050.036 1342.329)" fill="#263c7a"/>
    <path id="path292" d="M543.5-191.22l-7.73-4.464c-.623-.359-.544-.985.172-1.4l7.66-4.422a2.7,2.7,0,0,1,2.423-.1l7.731,4.464c.621.359.542.985-.174,1.4l-7.661,4.421a2.688,2.688,0,0,1-2.421.1" transform="translate(-1048.328 1343.315)" fill="#263c7a"/>
    <path id="path294" d="M553.735-185.312,546-189.777c-.621-.359-.544-.985.174-1.4l7.66-4.422a2.691,2.691,0,0,1,2.423-.1l7.731,4.464c.62.358.542.984-.173,1.4l-7.661,4.422a2.693,2.693,0,0,1-2.421.1" transform="translate(-1046.621 1344.301)" fill="#263c7a"/>
    <path id="path296" d="M563.967-179.407l-7.731-4.463c-.621-.358-.544-.985.174-1.4l7.66-4.422a2.691,2.691,0,0,1,2.423-.1l7.731,4.464c.62.358.542.984-.174,1.4l-7.661,4.424a2.693,2.693,0,0,1-2.421.1" transform="translate(-1044.913 1345.287)" fill="#263c7a"/>
    <path id="path298" d="M574.2-173.5l-7.731-4.463c-.623-.358-.544-.984.174-1.4l7.66-4.422a2.7,2.7,0,0,1,2.423-.1l7.731,4.464c.62.358.542.985-.174,1.4l-7.661,4.424a2.688,2.688,0,0,1-2.421.1" transform="translate(-1043.206 1346.273)" fill="#263c7a"/>
    <path id="path300" d="M584.43-167.592l-7.731-4.463c-.621-.358-.542-.984.173-1.4l7.66-4.422a2.7,2.7,0,0,1,2.423-.1l7.731,4.464c.621.359.544.985-.174,1.4l-7.661,4.424a2.688,2.688,0,0,1-2.421.1" transform="translate(-1041.498 1347.259)" fill="#263c7a"/>
    <path id="path302" d="M594.663-161.683l-7.731-4.464c-.621-.359-.544-.984.174-1.4l7.66-4.422a2.7,2.7,0,0,1,2.423-.1l7.731,4.464c.62.359.544.984-.173,1.4l-7.661,4.422a2.693,2.693,0,0,1-2.421.1" transform="translate(-1039.791 1348.244)" fill="#263c7a"/>
    <path id="path304" d="M604.9-155.776l-7.731-4.464c-.621-.359-.544-.985.174-1.4l7.66-4.424a2.7,2.7,0,0,1,2.423-.1l7.731,4.464c.62.356.544.982-.173,1.4l-7.661,4.422a2.693,2.693,0,0,1-2.421.1" transform="translate(-1038.083 1349.23)" fill="#263c7a"/>
    <path id="path306" d="M527.883-211.739l-7.731-4.464c-.621-.359-.544-.985.173-1.4l7.662-4.423a2.693,2.693,0,0,1,2.421-.1l7.731,4.464c.621.359.542.985-.173,1.4l-7.66,4.421a2.691,2.691,0,0,1-2.423.1" transform="translate(-1050.935 1339.891)" fill="#4067b1"/>
    <path id="path308" d="M517.5-217.735l-7.731-4.464c-.621-.358-.544-.985.173-1.4l7.66-4.424a2.691,2.691,0,0,1,2.423-.1l7.731,4.463c.62.358.544.984-.174,1.4l-7.661,4.422a2.693,2.693,0,0,1-2.421.1" transform="translate(-1052.668 1338.891)" fill="#4067b1"/>
    <path id="path310" d="M508.371-223l-16.651-9.615c-.62-.358-.544-.984.174-1.4l7.661-4.422a2.688,2.688,0,0,1,2.421-.1l16.65,9.613c.621.359.544.985-.173,1.4l-7.662,4.422a2.688,2.688,0,0,1-2.421.1" transform="translate(-1055.679 1337.152)" fill="#263c7a"/>
    <path id="path312" d="M515.195-230.566l-13.514-7.8c-.62-.358-.544-.982.174-1.4l7.661-4.422a2.693,2.693,0,0,1,2.421-.1l13.514,7.8c.62.359.542.985-.175,1.4l-7.66,4.421a2.689,2.689,0,0,1-2.421.1" transform="translate(-1054.017 1336.193)" fill="#263c7a"/>
    <path id="path314" d="M538.114-205.832l-7.731-4.464c-.62-.359-.542-.985.174-1.4l7.661-4.422a2.688,2.688,0,0,1,2.421-.1l7.731,4.463c.623.359.544.985-.174,1.4l-7.66,4.422a2.7,2.7,0,0,1-2.423.1" transform="translate(-1049.227 1340.877)" fill="#4067b1"/>
    <path id="path316" d="M548.346-199.926l-7.731-4.463c-.62-.358-.544-.985.174-1.4l7.661-4.422a2.688,2.688,0,0,1,2.421-.1l7.731,4.464c.621.358.544.984-.174,1.4l-7.66,4.424a2.7,2.7,0,0,1-2.423.1" transform="translate(-1047.52 1341.863)" fill="#263c7a"/>
    <path id="path318" d="M558.579-194.018l-7.731-4.463c-.62-.358-.544-.984.174-1.4l7.661-4.422a2.693,2.693,0,0,1,2.421-.1l7.731,4.464c.621.358.544.985-.174,1.4L561-194.118a2.7,2.7,0,0,1-2.423.1" transform="translate(-1045.812 1342.849)" fill="#263c7a"/>
    <path id="path320" d="M568.811-188.111l-7.731-4.463c-.621-.359-.544-.984.174-1.4l7.661-4.423a2.693,2.693,0,0,1,2.421-.1l7.731,4.464c.621.359.542.985-.174,1.4l-7.66,4.424a2.7,2.7,0,0,1-2.423.1" transform="translate(-1044.105 1343.834)" fill="#263c7a"/>
    <path id="path322" d="M579.042-182.2l-7.731-4.464c-.62-.359-.542-.984.173-1.4l7.661-4.422a2.693,2.693,0,0,1,2.421-.1l7.731,4.464c.623.359.544.984-.173,1.4l-7.66,4.422a2.7,2.7,0,0,1-2.423.1" transform="translate(-1042.397 1344.82)" fill="#263c7a"/>
    <path id="path324" d="M589.275-176.295l-7.731-4.464c-.62-.359-.544-.985.174-1.4l7.661-4.424a2.688,2.688,0,0,1,2.421-.1l7.731,4.463c.621.358.544.984-.173,1.4L591.7-176.4a2.7,2.7,0,0,1-2.423.1" transform="translate(-1040.69 1345.806)" fill="#263c7a"/>
    <path id="path326" d="M599.507-170.387l-7.731-4.464c-.62-.358-.544-.985.173-1.4l7.662-4.424a2.688,2.688,0,0,1,2.421-.1l7.731,4.463c.621.358.544.984-.174,1.4l-7.66,4.422a2.7,2.7,0,0,1-2.423.1" transform="translate(-1038.982 1346.792)" fill="#263c7a"/>
    <path id="path328" d="M609.74-164.48l-7.731-4.464c-.621-.358-.544-.984.173-1.4l7.662-4.424a2.7,2.7,0,0,1,2.421-.1L620-170.4c.621.358.542.985-.173,1.4l-7.66,4.422a2.691,2.691,0,0,1-2.423.1" transform="translate(-1037.275 1347.778)" fill="#263c7a"/>
    <path id="path330" d="M619.97-158.573l-7.731-4.464c-.62-.358-.542-.984.174-1.4l7.661-4.421a2.689,2.689,0,0,1,2.421-.1l7.731,4.464c.623.359.544.985-.174,1.4l-7.66,4.424a2.7,2.7,0,0,1-2.423.1" transform="translate(-1035.567 1348.763)" fill="#263c7a"/>
    <path id="path332" d="M639.468-147.316l-16.869-9.74c-.621-.358-.544-.982.173-1.4l7.66-4.423a2.7,2.7,0,0,1,2.423-.1l16.87,9.739c.62.359.542.985-.175,1.4l-7.66,4.421a2.686,2.686,0,0,1-2.423.1" transform="translate(-1033.839 1349.762)" fill="#263c7a"/>
    <path id="path334" d="M659.012-159.035l-14.237-8.219c-.621-.359-.544-.985.174-1.4l7.661-4.421a2.683,2.683,0,0,1,2.421-.1l14.237,8.221c.621.359.544.984-.173,1.4l-7.66,4.424a2.691,2.691,0,0,1-2.423.1" transform="translate(-1030.138 1348.059)" fill="#263c7a"/>
    <path id="path336" d="M556.033-206.988l-7.731-4.464c-.62-.359-.544-.985.173-1.4l7.661-4.422a2.688,2.688,0,0,1,2.421-.1l7.731,4.463c.623.358.544.984-.173,1.4l-7.66,4.422a2.7,2.7,0,0,1-2.423.1" transform="translate(-1046.237 1340.684)" fill="#263c7a"/>
    <path id="path338" d="M545.547-213.043l-7.731-4.464c-.621-.358-.544-.984.173-1.4l7.66-4.424a2.7,2.7,0,0,1,2.423-.1l7.731,4.463c.621.358.544.985-.173,1.4l-7.661,4.422a2.688,2.688,0,0,1-2.421.1" transform="translate(-1047.987 1339.674)" fill="#263c7a"/>
    <path id="path340" d="M535.059-219.1l-7.731-4.463c-.62-.359-.542-.985.175-1.4l7.66-4.421a2.688,2.688,0,0,1,2.421-.1l7.733,4.464c.62.359.542.985-.175,1.4l-7.66,4.422a2.691,2.691,0,0,1-2.423.1" transform="translate(-1049.737 1338.663)" fill="#4067b1"/>
    <path id="path342" d="M524.574-225.152l-7.731-4.464c-.621-.356-.544-.984.173-1.4l7.66-4.424a2.7,2.7,0,0,1,2.423-.1l7.731,4.464c.62.358.544.985-.173,1.4l-7.661,4.424a2.7,2.7,0,0,1-2.421.1" transform="translate(-1051.487 1337.653)" fill="#263c7a"/>
    <path id="path344" d="M566.265-201.081l-7.731-4.464c-.62-.358-.544-.985.174-1.4l7.661-4.424a2.688,2.688,0,0,1,2.421-.1L576.521-207c.621.358.544.984-.173,1.4l-7.66,4.421a2.692,2.692,0,0,1-2.423.1" transform="translate(-1044.53 1341.67)" fill="#263c7a"/>
    <path id="path346" d="M576.5-195.173l-7.731-4.464c-.62-.358-.544-.985.173-1.4l7.661-4.424a2.688,2.688,0,0,1,2.421-.1l7.731,4.463c.621.358.544.985-.173,1.4l-7.66,4.422a2.7,2.7,0,0,1-2.423.1" transform="translate(-1042.822 1342.656)" fill="#263c7a"/>
    <path id="path348" d="M586.728-189.266,579-193.73c-.621-.358-.544-.984.174-1.4l7.661-4.421a2.688,2.688,0,0,1,2.421-.1l7.73,4.464c.623.358.544.985-.172,1.4l-7.661,4.424a2.7,2.7,0,0,1-2.423.1" transform="translate(-1041.115 1343.641)" fill="#263c7a"/>
    <path id="path350" d="M596.961-183.36l-7.731-4.461c-.62-.359-.542-.985.174-1.4l7.661-4.421a2.688,2.688,0,0,1,2.421-.1l7.731,4.464c.623.359.544.985-.173,1.4l-7.66,4.422a2.686,2.686,0,0,1-2.423.1" transform="translate(-1039.407 1344.627)" fill="#263c7a"/>
    <path id="path352" d="M607.193-177.451l-7.731-4.463c-.62-.359-.542-.985.173-1.4l7.661-4.421a2.683,2.683,0,0,1,2.421-.1l7.731,4.463c.621.359.544.985-.174,1.4l-7.66,4.422a2.692,2.692,0,0,1-2.423.1" transform="translate(-1037.7 1345.613)" fill="#263c7a"/>
    <path id="path354" d="M617.426-171.544l-7.731-4.464c-.621-.356-.542-.984.174-1.4l7.661-4.424a2.692,2.692,0,0,1,2.421-.1l7.731,4.464c.621.358.544.984-.174,1.4l-7.66,4.422a2.7,2.7,0,0,1-2.423.1" transform="translate(-1035.992 1346.599)" fill="#263c7a"/>
    <path id="path356" d="M627.656-165.636l-7.73-4.464c-.621-.358-.542-.984.173-1.4l7.661-4.424a2.693,2.693,0,0,1,2.421-.1l7.73,4.464c.623.358.544.984-.173,1.4l-7.66,4.424a2.7,2.7,0,0,1-2.423.1" transform="translate(-1034.285 1347.585)" fill="#263c7a"/>
    <path id="path358" d="M637.889-159.729l-7.731-4.464c-.62-.358-.542-.984.173-1.4l7.661-4.422a2.693,2.693,0,0,1,2.421-.1l7.731,4.464c.623.356.544.984-.174,1.4l-7.66,4.424a2.7,2.7,0,0,1-2.423.1" transform="translate(-1032.577 1348.571)" fill="#263c7a"/>
    <path id="path360" d="M648.121-153.822l-7.731-4.463c-.62-.359-.542-.985.174-1.4l7.661-4.422a2.688,2.688,0,0,1,2.421-.1l7.731,4.463c.621.359.544.985-.174,1.4l-7.66,4.421a2.687,2.687,0,0,1-2.423.1" transform="translate(-1030.87 1349.556)" fill="#263c7a"/>
    <path id="path362" d="M550.646-221.6l-7.733-4.464c-.62-.358-.542-.985.175-1.4l7.66-4.424a2.691,2.691,0,0,1,2.423-.1l7.731,4.463c.621.358.542.984-.175,1.4l-7.66,4.421a2.688,2.688,0,0,1-2.421.1" transform="translate(-1047.136 1338.246)" fill="#263c7a"/>
    <path id="path364" d="M540.465-227.478l-7.733-4.464c-.62-.358-.542-.985.175-1.4l7.66-4.422a2.7,2.7,0,0,1,2.423-.1l7.731,4.464c.62.358.542.985-.175,1.4l-7.66,4.424a2.693,2.693,0,0,1-2.421.1" transform="translate(-1048.835 1337.265)" fill="#263c7a"/>
    <path id="path366" d="M530.283-233.358l-7.731-4.461c-.621-.359-.544-.985.174-1.4l7.66-4.421a2.692,2.692,0,0,1,2.423-.1l7.731,4.464c.621.359.542.985-.174,1.4l-7.661,4.424a2.688,2.688,0,0,1-2.421.1" transform="translate(-1050.534 1336.284)" fill="#263c7a"/>
    <path id="path368" d="M520.1-239.234l-7.731-4.464c-.621-.359-.544-.984.174-1.4l7.66-4.422a2.691,2.691,0,0,1,2.423-.1l7.731,4.463c.62.359.544.984-.174,1.4l-7.661,4.422a2.693,2.693,0,0,1-2.421.1" transform="translate(-1052.233 1335.303)" fill="#263c7a"/>
    <path id="path370" d="M530.573-245.7l-7.733-4.464c-.621-.358-.542-.985.175-1.4l2.531-1.464a2.691,2.691,0,0,1,2.423-.1l7.731,4.463c.62.358.542.985-.173,1.4l-2.533,1.461a2.689,2.689,0,0,1-2.421.1" transform="translate(-1050.486 1334.718)" fill="#263c7a"/>
    <path id="path372" d="M543.857-238.032l-7.731-4.464c-.62-.358-.541-.984.174-1.4l2.533-1.462a2.7,2.7,0,0,1,2.423-.1l7.731,4.464c.621.358.544.984-.173,1.4l-2.533,1.462a2.691,2.691,0,0,1-2.423.1" transform="translate(-1048.269 1335.998)" fill="#263c7a"/>
    <path id="path374" d="M554-232.179l-7.731-4.463c-.621-.359-.544-.984.173-1.4l2.533-1.462a2.693,2.693,0,0,1,2.421-.1l7.733,4.464c.62.359.542.985-.175,1.4l-2.531,1.462a2.691,2.691,0,0,1-2.423.1" transform="translate(-1046.577 1336.975)" fill="#263c7a"/>
    <path id="path376" d="M564.136-226.324l-7.731-4.463c-.621-.359-.544-.985.174-1.4l2.533-1.461a2.683,2.683,0,0,1,2.421-.1l7.731,4.463c.621.359.544.985-.174,1.4l-2.533,1.461a2.688,2.688,0,0,1-2.421.1" transform="translate(-1044.885 1337.951)" fill="#263c7a"/>
    <path id="path378" d="M574.274-220.47l-7.731-4.464c-.621-.359-.542-.985.175-1.4l2.531-1.464a2.7,2.7,0,0,1,2.423-.1l7.731,4.463c.62.358.542.984-.174,1.4l-2.533,1.461a2.692,2.692,0,0,1-2.423.1" transform="translate(-1043.193 1338.928)" fill="#263c7a"/>
    <path id="path380" d="M630.877-187.791l-7.731-4.464c-.621-.358-.544-.985.173-1.4l2.533-1.464a2.7,2.7,0,0,1,2.421-.1l7.733,4.464c.62.358.542.985-.175,1.4l-2.531,1.462a2.7,2.7,0,0,1-2.423.1" transform="translate(-1033.747 1344.382)" fill="#263c7a"/>
    <path id="path382" d="M641.015-181.938l-7.73-4.463c-.623-.358-.544-.985.172-1.4l2.534-1.461a2.688,2.688,0,0,1,2.421-.1l7.73,4.464c.623.358.544.985-.173,1.4l-2.533,1.464a2.688,2.688,0,0,1-2.421.1" transform="translate(-1032.056 1345.359)" fill="#263c7a"/>
    <path id="path384" d="M651.155-176.084l-7.733-4.464c-.62-.358-.542-.984.175-1.4l2.531-1.462a2.691,2.691,0,0,1,2.423-.1l7.731,4.463c.621.359.544.985-.173,1.4l-2.533,1.462a2.688,2.688,0,0,1-2.421.1" transform="translate(-1030.364 1346.335)" fill="#263c7a"/>
    <path id="path386" d="M661.293-170.231l-7.731-4.463c-.62-.359-.544-.985.174-1.4l2.533-1.462a2.7,2.7,0,0,1,2.423-.1l7.731,4.464c.62.359.542.984-.175,1.4l-2.531,1.462a2.691,2.691,0,0,1-2.423.1" transform="translate(-1028.672 1347.312)" fill="#263c7a"/>
    <path id="path388" d="M560.878-215.692l-7.733-4.464c-.62-.358-.542-.985.175-1.4l7.66-4.424a2.7,2.7,0,0,1,2.423-.1l7.731,4.464c.62.358.542.985-.175,1.4l-7.66,4.422a2.693,2.693,0,0,1-2.421.1" transform="translate(-1045.429 1339.232)" fill="#263c7a"/>
    <path id="path390" d="M571.111-209.785l-7.733-4.464c-.621-.358-.542-.984.175-1.4l7.66-4.421a2.691,2.691,0,0,1,2.423-.1l7.731,4.464c.62.358.542.985-.175,1.4l-7.66,4.424a2.693,2.693,0,0,1-2.421.1" transform="translate(-1043.721 1340.217)" fill="#263c7a"/>
    <path id="path392" d="M581.341-203.879l-7.731-4.461c-.621-.359-.542-.985.175-1.4l7.66-4.421a2.691,2.691,0,0,1,2.423-.1l7.73,4.464c.621.359.542.985-.175,1.4l-7.66,4.424a2.683,2.683,0,0,1-2.421.1" transform="translate(-1042.014 1341.203)" fill="#263c7a"/>
    <path id="path394" d="M591.574-197.97l-7.733-4.463c-.62-.359-.542-.985.175-1.4l7.66-4.423a2.691,2.691,0,0,1,2.423-.1l7.731,4.463c.621.359.542.985-.175,1.4L594-198.071a2.688,2.688,0,0,1-2.421.1" transform="translate(-1040.306 1342.189)" fill="#263c7a"/>
    <path id="path396" d="M601.806-192.063l-7.731-4.464c-.621-.358-.544-.984.174-1.4l7.66-4.424a2.7,2.7,0,0,1,2.423-.1l7.731,4.464c.62.358.542.984-.174,1.4l-7.661,4.422a2.693,2.693,0,0,1-2.421.1" transform="translate(-1038.599 1343.175)" fill="#263c7a"/>
    <path id="path398" d="M612.039-186.156l-7.731-4.464c-.623-.358-.544-.984.174-1.4l7.66-4.424a2.7,2.7,0,0,1,2.423-.1l7.731,4.464c.62.358.542.984-.173,1.4l-7.661,4.424a2.7,2.7,0,0,1-2.421.1" transform="translate(-1036.891 1344.161)" fill="#263c7a"/>
    <path id="path400" d="M622.27-180.248l-7.73-4.464c-.623-.358-.544-.984.174-1.4l7.66-4.422a2.7,2.7,0,0,1,2.423-.1l7.73,4.464c.621.356.542.984-.173,1.4l-7.662,4.424a2.693,2.693,0,0,1-2.421.1" transform="translate(-1035.184 1345.146)" fill="#263c7a"/>
    <path id="path402" d="M632.5-174.341l-7.731-4.463c-.621-.359-.544-.985.174-1.4l7.66-4.422a2.691,2.691,0,0,1,2.423-.1l7.731,4.463c.621.359.542.985-.174,1.4l-7.661,4.422a2.683,2.683,0,0,1-2.421.1" transform="translate(-1033.476 1346.132)" fill="#263c7a"/>
    <path id="path404" d="M642.734-168.432,635-172.9c-.621-.359-.544-.985.174-1.4l7.66-4.422a2.691,2.691,0,0,1,2.423-.1l7.731,4.463c.62.359.542.985-.173,1.4l-7.662,4.421a2.688,2.688,0,0,1-2.421.1" transform="translate(-1031.769 1347.118)" fill="#263c7a"/>
    <path id="path406" d="M504.53-213.722l-22.769-13.145c-.621-.359-.544-.985.174-1.4l7.661-4.422a2.688,2.688,0,0,1,2.421-.1l22.769,13.147c.621.358.544.984-.173,1.4l-7.66,4.422a2.7,2.7,0,0,1-2.423.1" transform="translate(-1057.341 1338.112)" fill="#263c7a"/>
    <path id="path408" d="M630.233-141.146l-22.771-13.148c-.62-.358-.542-.982.175-1.4l7.66-4.422a2.7,2.7,0,0,1,2.423-.1L640.49-147.07c.62.359.542.985-.175,1.4l-7.66,4.421a2.689,2.689,0,0,1-2.421.1" transform="translate(-1036.365 1350.223)" fill="#263c7a"/>
    <path id="path410" d="M587.162-152.843l-7.731-4.464c-.62-.358-.542-.985.175-1.4l9.125-5.27a2.7,2.7,0,0,1,2.423-.1l7.731,4.464c.62.358.541.985-.174,1.4l-9.127,5.27a2.7,2.7,0,0,1-2.423.1" transform="translate(-1041.042 1349.578)" fill="#263c7a"/>
    <path id="path412" d="M513.521-195.36,501.155-202.5c-.62-.358-.542-.984.175-1.4l9.124-5.27a2.7,2.7,0,0,1,2.423-.1l12.364,7.138c.623.359.544.985-.174,1.4l-9.125,5.268a2.693,2.693,0,0,1-2.421.1" transform="translate(-1054.104 1342.037)" fill="#263c7a"/>
    <path id="path414" d="M577.967-158.153,565.6-165.292c-.62-.358-.541-.984.175-1.4l9.125-5.268a2.692,2.692,0,0,1,2.423-.1l12.364,7.139c.62.358.544.984-.173,1.4l-9.127,5.268a2.693,2.693,0,0,1-2.421.1" transform="translate(-1043.35 1348.246)" fill="#263c7a"/>
    <path id="path416" d="M528.283-186.839l-12.364-7.138c-.621-.358-.542-.985.174-1.4l9.125-5.27a2.691,2.691,0,0,1,2.423-.1L540-193.607c.621.359.544.985-.173,1.4l-9.127,5.268a2.688,2.688,0,0,1-2.421.1" transform="translate(-1051.641 1343.459)" fill="#263c7a"/>
    <path id="path418" d="M527.652-200.738,581.409-169.7a.737.737,0,0,1,0,1.4l-9.3,5.37a2.668,2.668,0,0,1-2.417,0L515.93-193.97l11.721-6.768" transform="translate(-1051.569 1343.501)" fill="#263c7a"/>
    <path id="path420" d="M615.481-143.745l8.613,4.972c.508.294.445.807-.143,1.146l-3.733,2.155a2.2,2.2,0,0,1-1.984.082l-8.613-4.971c-.51-.3-.446-.809.143-1.146l3.733-2.156a2.208,2.208,0,0,1,1.984-.082" transform="translate(-1035.992 1352.978)" fill="#263c7a"/>
    <path id="path422" d="M605.165-149.7l8.613,4.972c.508.293.445.805-.144,1.146l-3.732,2.155a2.21,2.21,0,0,1-1.987.084l-8.611-4.972c-.508-.294-.445-.807.144-1.148l3.732-2.153a2.207,2.207,0,0,1,1.986-.084" transform="translate(-1037.713 1351.984)" fill="#263c7a"/>
    <path id="path424" d="M594.933-155.609l8.613,4.972c.508.293.445.805-.143,1.146l-3.733,2.156a2.21,2.21,0,0,1-1.986.081l-8.611-4.972c-.51-.293-.445-.805.142-1.146l3.733-2.153a2.2,2.2,0,0,1,1.984-.084" transform="translate(-1039.421 1350.998)" fill="#263c7a"/>
    <path id="path426" d="M610.815-152.963l8.611,4.972c.51.293.445.805-.141,1.145l-3.735,2.156a2.2,2.2,0,0,1-1.984.082l-8.611-4.971c-.51-.3-.446-.809.141-1.148l3.735-2.155a2.208,2.208,0,0,1,1.984-.082" transform="translate(-1036.771 1351.44)" fill="#263c7a"/>
    <path id="path428" d="M622.151-297.348l-7.393-4.269a3.055,3.055,0,0,1-1.27-2.385c-.014-.922.53-1.346,1.216-.951l7.4,4.271a3.049,3.049,0,0,1,1.269,2.384c.014.92-.528,1.348-1.216.951" transform="translate(-1035.29 1326.085)" fill="#d9effb"/>
    <path id="path430" d="M637.747-288.343l-10.9-6.3a3.061,3.061,0,0,1-1.269-2.385c-.016-.922.53-1.346,1.216-.951l10.9,6.3a3.045,3.045,0,0,1,1.269,2.385c.016.922-.527,1.348-1.214.951" transform="translate(-1033.272 1327.25)" fill="#d9effb"/>
    <path id="path432" d="M619.011-263.555l-7.393-4.269a3.055,3.055,0,0,1-1.27-2.385c-.016-.922.53-1.346,1.214-.951l7.4,4.271a3.051,3.051,0,0,1,1.269,2.384c.014.92-.53,1.348-1.216.951" transform="translate(-1035.813 1331.724)" fill="#d9effb"/>
    <path id="path434" d="M632.97-255.5l-10.9-6.3a3.051,3.051,0,0,1-1.27-2.385c-.014-.922.53-1.346,1.215-.95l10.905,6.294a3.054,3.054,0,0,1,1.269,2.386c.015.922-.53,1.348-1.214.951" transform="translate(-1034.07 1332.731)" fill="#d9effb"/>
    <path id="path436" d="M604.378-301.675l-4.619-2.667a3.054,3.054,0,0,1-1.269-2.385c-.016-.922.528-1.346,1.214-.95l4.619,2.667a3.043,3.043,0,0,1,1.27,2.384c.014.92-.53,1.348-1.216.951" transform="translate(-1037.792 1325.63)" fill="#d9effb"/>
    <path id="path438" d="M619.255-287.151,605.142-295.3a3.046,3.046,0,0,1-1.27-2.384c-.014-.922.528-1.348,1.214-.953l14.115,8.149a3.061,3.061,0,0,1,1.269,2.385c.016.922-.53,1.346-1.214.951" transform="translate(-1036.894 1327.139)" fill="#d9effb"/>
    <path id="path440" d="M609.955-280.653l-4.621-2.667a3.058,3.058,0,0,1-1.269-2.385c-.016-.922.53-1.346,1.216-.95l4.618,2.667a3.043,3.043,0,0,1,1.27,2.384c.014.92-.53,1.348-1.214.951" transform="translate(-1036.862 1329.138)" fill="#d9effb"/>
    <path id="path442" d="M637.846-240.811l-12.338-7.124a3.052,3.052,0,0,1-1.269-2.385c-.015-.92.53-1.348,1.214-.951l12.338,7.124a3.049,3.049,0,0,1,1.269,2.385c.016.922-.528,1.348-1.214.951" transform="translate(-1033.495 1335.043)" fill="#d9effb"/>
    <path id="path444" d="M608.495-269.627l-2.965-1.71a3.058,3.058,0,0,1-1.27-2.385c-.014-.922.53-1.349,1.214-.953l2.966,1.713a3.05,3.05,0,0,1,1.269,2.386c.016.922-.528,1.346-1.214.95" transform="translate(-1036.829 1331.137)" fill="#d9effb"/>
    <path id="path446" d="M609.405-257.233l-3.682-2.125a3.054,3.054,0,0,1-1.269-2.385c-.016-.922.53-1.346,1.214-.95l3.682,2.125a3.054,3.054,0,0,1,1.269,2.386c.016.92-.528,1.346-1.214.95" transform="translate(-1036.797 1333.137)" fill="#d9effb"/>
    <path id="path448" d="M622.544-249.647l-9.708-5.6a3.058,3.058,0,0,1-1.27-2.385c-.016-.922.53-1.348,1.214-.953l9.709,5.606a3.052,3.052,0,0,1,1.269,2.385c.016.92-.53,1.348-1.214.951" transform="translate(-1035.61 1333.822)" fill="#d9effb"/>
    <path id="path450" d="M612.8-249.338l-6.98-4.029a3.056,3.056,0,0,1-1.269-2.385c-.015-.922.53-1.348,1.214-.951l6.98,4.031a3.044,3.044,0,0,1,1.269,2.384c.015.922-.527,1.348-1.214.951" transform="translate(-1036.781 1334.136)" fill="#d9effb"/>
    <path id="path452" d="M645.8-236.194l-4.481-2.588a3.05,3.05,0,0,1-1.27-2.384c-.015-.922.53-1.348,1.214-.951l4.484,2.588a3.052,3.052,0,0,1,1.269,2.385c.016.92-.53,1.346-1.216.95" transform="translate(-1030.857 1336.571)" fill="#d9effb"/>
    <path id="path454" d="M625.783-271.514l-12.338-7.122a3.057,3.057,0,0,1-1.269-2.387c-.015-.92.53-1.346,1.214-.95l12.338,7.124a3.051,3.051,0,0,1,1.27,2.385c.014.922-.53,1.346-1.216.95" transform="translate(-1035.508 1329.92)" fill="#d9effb"/>
    <path id="path456" d="M626.741-276.9l-21.5-12.415a3.052,3.052,0,0,1-1.269-2.385c-.014-.92.528-1.346,1.216-.95l21.5,12.415a3.058,3.058,0,0,1,1.269,2.385c.016.922-.53,1.346-1.216.95" transform="translate(-1036.878 1328.139)" fill="#d9effb"/>
    <path id="path458" d="M617.769-270.2l-12.338-7.124a3.058,3.058,0,0,1-1.269-2.385c-.016-.922.53-1.348,1.214-.951l12.338,7.122a3.053,3.053,0,0,1,1.27,2.385c.014.922-.528,1.348-1.216.953" transform="translate(-1036.845 1330.138)" fill="#d9effb"/>
    <path id="path460" d="M632.679-267.532l-4.481-2.587a3.05,3.05,0,0,1-1.27-2.387c-.014-.92.528-1.346,1.216-.951l4.481,2.588a3.051,3.051,0,0,1,1.27,2.386c.014.922-.53,1.348-1.216.951" transform="translate(-1033.047 1331.341)" fill="#d9effb"/>
    <path id="path462" d="M668.484-270.6l-26.546-15.328a3.058,3.058,0,0,1-1.269-2.385c-.016-.922.53-1.346,1.215-.95l26.547,15.324a3.061,3.061,0,0,1,1.269,2.387c.015.92-.53,1.346-1.216.951" transform="translate(-1030.753 1328.704)" fill="#d9effb"/>
    <path id="path464" d="M620.457-256.785l-14.83-8.565a3.045,3.045,0,0,1-1.269-2.385c-.015-.92.528-1.346,1.214-.95l14.831,8.561a3.052,3.052,0,0,1,1.269,2.385c.016.922-.528,1.348-1.214.953" transform="translate(-1036.813 1332.137)" fill="#d9effb"/>
    <path id="path466" d="M610.566-304.037l-10.9-6.3a3.058,3.058,0,0,1-1.27-2.386c-.014-.922.53-1.348,1.218-.951l10.9,6.3a3.054,3.054,0,0,1,1.269,2.385c.015.92-.528,1.346-1.214.951" transform="translate(-1037.808 1324.631)" fill="#d9effb"/>
    <path id="path468" d="M613.26-243.137l-12.628-7.291a3.061,3.061,0,0,1-1.269-2.385c-.015-.922.53-1.348,1.214-.951l12.628,7.29a3.053,3.053,0,0,1,1.27,2.386c.014.922-.528,1.348-1.216.953" transform="translate(-1037.646 1334.627)" fill="#d9effb"/>
    <path id="path470" d="M334.62-228.913l65.044-37.872c12.886-7.438,25.037-8.616,34.218-3.32s14.234,16.412,14.234,31.292v4.765c-.46.311-.942.615-1.434.915v-5.68c0-14.346-4.8-25.017-13.517-30.05s-20.36-3.852-32.784,3.32l-65.044,37.871a.711.711,0,0,1-.979-.262.717.717,0,0,1,.262-.979" transform="translate(-1081.885 1331.38)" fill="#d9effb"/>
    <path id="path472" d="M513.018-240.648v-146.58c0-29.339,20.673-65.146,46.083-79.815,12.443-7.184,24.183-8.323,33.05-3.2S605.9-454.395,605.9-440.024v10.22q-.716.718-1.434,1.434v-11.655c0-13.836-4.628-24.129-13.034-28.981s-19.632-3.713-31.616,3.2c-25.014,14.443-45.366,49.691-45.366,78.574v146.58c0,24.32-14.308,53.1-33.714,70.423v-1.924c18.639-17.128,32.28-44.942,32.28-68.5" transform="translate(-1057.442 1298)" fill="#d9effb"/>
    <path id="path474" d="M588.208-430.1h0a57.572,57.572,0,0,1,29.363-14.375c18.15-2.776,25.65,18.451,25.65,18.451s2.1,11.024,2.025,17.55-.542,30.22-.542,30.22L587.168-411.4v-.009a.71.71,0,0,1-.395-.63v-16.824c.479-.477.957-.761,1.434-1.239" transform="translate(-1039.747 1302.785)" fill="#263c7a"/>
    <path id="path476" d="M646.707-438.845l-54.535-31.439.214.782c-8.405-5.429-21.107-6.015-38.1,6.445-33.75,24.75-37.8,59.207-39.525,65.662s-1.013,47.365-1.013,47.365-.111,98.662-.225,110.137-3.453,24.349-9.9,38.25-23.006,30.77-23.006,30.77v20.082c2.644,21.711,11.869,26.775,25.593,28.013,11.077,1,22.881-7,32.31-15.716-.347.364-.572.593-.572.593v20.082c2.644,21.711,11.869,26.773,25.595,28.013s28.567-11.336,38.625-21.976,18.539-26.891,23.249-41.55,3.151-33.6,3.151-33.6.113-107.851.226-129.113.787-17.55,7.762-38.925,25.463-36.339,25.463-36.339l44.366-13.212-59.678-34.323" transform="translate(-1057.462 1298.038)" fill="#d9effb"/>
    <path id="path478" d="M560.116-129.807c-.747-1.016-10.465-7.531-12.939-19.008C545.8-155.2,545.94-164.9,545.94-164.9s.039-5.4.169-10.3l.328-.277v-1.925l-.269.237c.037-1.109.079-2.148.127-3.03.282-5.1-3.487-15.975-3.487-15.975s-5.344-14.569-21.262-15.131c-14.135-.5-29.012,9.667-32.176,11.957v-6.577c-.209.143-.437.279-.655.418.019-.883.04-1.783.063-2.667l.327-.279v-1.925l-.268.237c.036-1.108.077-2.147.127-3.03.28-5.1-3.487-15.974-3.487-15.974s-5.346-14.569-21.263-15.132c-14.133-.5-29.01,9.669-32.175,11.958V-238.9c-.46.31-.942.615-1.434.915v11.517c0,13.954,4.649,24.442,13.091,29.65l.034.039.3.17.231.147.16.076,58.369,33.606-.073-.077,57.405,33.048" transform="translate(-1065.808 1336.232)" fill="#263c7a"/>
    <path id="path480" d="M491.174-237.22s-.437-.226-1.208-.541c-.237-.113-.465-.246-.706-.353l-55.418-32.077a29.736,29.736,0,0,0-22.5-.844c-12.316,4.508-76.847,43.219-76.847,43.219l57.65,33.214.011,0,.155.04,57.167,32.937S481.824-181.667,504.2-194.6l1.436-.826c9.147-5.26,16.413-9.189,18.692-9.793,13.794-3.656,23.395.8,25.894,2.17L491.174-237.22" transform="translate(-1081.845 1331.469)" fill="#d9effb"/>
    <path id="path482" d="M519.37-213.025l.668.386s-.245-.153-.668-.386" transform="translate(-1050.995 1341.45)" fill="#d9effb"/>
    <path id="path484" d="M637.341-401.845h0A57.532,57.532,0,0,1,666.7-416.22c18.15-2.776,25.65,18.449,25.65,18.449s2.1,11.024,2.025,17.551S693.838-350,693.838-350L636.3-383.144v-.008a.713.713,0,0,1-.4-.632v-16.822c.479-.479.956-.762,1.434-1.239" transform="translate(-1031.548 1307.5)" fill="#263c7a"/>
    <path id="path486" d="M570.975-98.424c6.343,0,13.367-2.119,20.633-6.314,25.226-14.564,45.749-50.111,45.749-79.239v-146.58c0-28.883,20.351-64.131,45.366-78.577,11.982-6.913,23.211-8.053,31.614-3.2s13.034,15.145,13.034,28.982v32.768a.717.717,0,0,0,.717.717.717.717,0,0,0,.717-.717v-32.768c0-14.372-4.883-25.1-13.751-30.223s-20.605-3.981-33.049,3.2c-25.412,14.671-46.085,50.48-46.085,79.818v146.58c0,28.672-20.2,63.662-45.03,78-11.892,6.865-23.037,8-31.38,3.179s-12.936-15.03-12.936-28.762v-17.2c0-14.878-5.055-25.991-14.234-31.29s-21.33-4.12-34.216,3.321l-65.042,37.871a.714.714,0,0,0-.262.979.719.719,0,0,0,.979.262l65.042-37.872c12.423-7.17,24.066-8.351,32.782-3.318S545.14-163.1,545.14-148.762v17.2c0,14.267,4.85,24.922,13.653,30.006a24.048,24.048,0,0,0,12.182,3.134" transform="translate(-1065.454 1307.457)" fill="#4067b1"/>
    <path id="path488" d="M556.663-310.651l-9.616-5.552a3.973,3.973,0,0,1-1.651-3.1c-.019-1.2.689-1.75,1.582-1.236l9.615,5.552a3.968,3.968,0,0,1,1.65,3.1c.02,1.2-.688,1.752-1.578,1.236" transform="translate(-1046.652 1323.477)" fill="#5f92d3"/>
    <path id="path490" d="M574.813-300.17l-14.18-8.187a3.97,3.97,0,0,1-1.65-3.1c-.02-1.2.688-1.752,1.58-1.236l14.178,8.185a3.972,3.972,0,0,1,1.65,3.1c.02,1.2-.688,1.752-1.578,1.238" transform="translate(-1044.385 1324.786)" fill="#5f92d3"/>
    <path id="path492" d="M556.979-341.334l-18.354-10.6a3.972,3.972,0,0,1-1.65-3.1c-.02-1.2.688-1.752,1.58-1.236l18.353,10.6a3.965,3.965,0,0,1,1.65,3.1c.02,1.2-.688,1.752-1.578,1.238" transform="translate(-1048.057 1317.514)" fill="#5f92d3"/>
    <path id="path494" d="M544.886-332.883l-6.007-3.468a3.966,3.966,0,0,1-1.651-3.1c-.02-1.2.688-1.752,1.582-1.236l6.006,3.467a3.971,3.971,0,0,1,1.65,3.1c.02,1.2-.686,1.75-1.579,1.236" transform="translate(-1048.015 1320.114)" fill="#5f92d3"/>
    <path id="path496" d="M542.986-318.546l-3.856-2.226a3.971,3.971,0,0,1-1.65-3.1c-.02-1.2.688-1.752,1.578-1.236l3.856,2.226a3.97,3.97,0,0,1,1.651,3.1c.02,1.2-.689,1.752-1.58,1.236" transform="translate(-1047.973 1322.714)" fill="#5f92d3"/>
    <path id="path498" d="M565.469-321l-16.043-9.262a3.977,3.977,0,0,1-1.651-3.1c-.019-1.2.689-1.752,1.58-1.236l16.043,9.262a3.972,3.972,0,0,1,1.651,3.1c.02,1.2-.688,1.75-1.58,1.236" transform="translate(-1046.255 1321.13)" fill="#5f92d3"/>
    <path id="path500" d="M566.714-328l-27.961-16.144a3.973,3.973,0,0,1-1.651-3.1c-.019-1.2.689-1.752,1.58-1.236l27.963,16.144a3.976,3.976,0,0,1,1.65,3.1c.02,1.2-.688,1.75-1.58,1.236" transform="translate(-1048.036 1318.814)" fill="#5f92d3"/>
    <path id="path502" d="M555.048-319.3,539-328.561a3.979,3.979,0,0,1-1.65-3.1c-.019-1.2.688-1.752,1.58-1.238l16.045,9.265a3.966,3.966,0,0,1,1.65,3.1c.02,1.2-.688,1.752-1.58,1.236" transform="translate(-1047.994 1321.414)" fill="#5f92d3"/>
    <path id="path504" d="M574.437-315.822l-5.831-3.366a3.967,3.967,0,0,1-1.65-3.1c-.02-1.2.688-1.75,1.58-1.235l5.829,3.363a3.971,3.971,0,0,1,1.65,3.1c.02,1.2-.688,1.752-1.578,1.236" transform="translate(-1043.054 1322.979)" fill="#5f92d3"/>
    <path id="path506" d="M560.745-354.592l-9.615-5.552a3.97,3.97,0,0,1-1.65-3.1c-.02-1.2.688-1.752,1.578-1.238l9.616,5.552a3.978,3.978,0,0,1,1.651,3.1c.019,1.2-.689,1.752-1.582,1.238" transform="translate(-1045.971 1316.144)" fill="#5f92d3"/>
    <path id="path508" d="M581.026-342.883l-14.177-8.187a3.972,3.972,0,0,1-1.653-3.1c-.017-1.2.689-1.752,1.582-1.236l14.178,8.185a3.971,3.971,0,0,1,1.651,3.1c.019,1.2-.689,1.752-1.582,1.238" transform="translate(-1043.348 1317.658)" fill="#5f92d3"/>
    <path id="path510" d="M556.663-310.651l-9.616-5.552a3.973,3.973,0,0,1-1.651-3.1c-.019-1.2.689-1.75,1.582-1.236l9.615,5.552a3.968,3.968,0,0,1,1.65,3.1c.02,1.2-.688,1.752-1.578,1.236" transform="translate(-1046.652 1323.477)" fill="#5f92d3"/>
    <path id="path512" d="M574.813-300.17l-14.18-8.187a3.97,3.97,0,0,1-1.65-3.1c-.02-1.2.688-1.752,1.58-1.236l14.178,8.185a3.972,3.972,0,0,1,1.65,3.1c.02,1.2-.688,1.752-1.578,1.238" transform="translate(-1044.385 1324.786)" fill="#5f92d3"/>
    <path id="path514" d="M537.635-360.22l-6.007-3.467a3.976,3.976,0,0,1-1.651-3.1c-.019-1.2.689-1.752,1.582-1.236l6.006,3.468a3.965,3.965,0,0,1,1.65,3.1c.02,1.2-.686,1.752-1.578,1.236" transform="translate(-1049.225 1315.552)" fill="#5f92d3"/>
    <path id="path516" d="M556.979-341.334l-18.354-10.6a3.972,3.972,0,0,1-1.65-3.1c-.02-1.2.688-1.752,1.58-1.236l18.353,10.6a3.965,3.965,0,0,1,1.65,3.1c.02,1.2-.688,1.752-1.578,1.238" transform="translate(-1048.057 1317.514)" fill="#5f92d3"/>
    <path id="path518" d="M544.886-332.883l-6.007-3.468a3.966,3.966,0,0,1-1.651-3.1c-.02-1.2.688-1.752,1.582-1.236l6.006,3.467a3.971,3.971,0,0,1,1.65,3.1c.02,1.2-.686,1.75-1.579,1.236" transform="translate(-1048.015 1320.114)" fill="#5f92d3"/>
    <path id="path520" d="M581.155-281.075l-16.043-9.263a3.972,3.972,0,0,1-1.651-3.1c-.019-1.2.688-1.752,1.58-1.238l16.045,9.263a3.972,3.972,0,0,1,1.65,3.1c.02,1.2-.688,1.752-1.58,1.238" transform="translate(-1043.638 1327.792)" fill="#5f92d3"/>
    <path id="path522" d="M542.986-318.546l-3.856-2.226a3.971,3.971,0,0,1-1.65-3.1c-.02-1.2.688-1.752,1.578-1.236l3.856,2.226a3.97,3.97,0,0,1,1.651,3.1c.02,1.2-.689,1.752-1.58,1.236" transform="translate(-1047.973 1322.714)" fill="#5f92d3"/>
    <path id="path524" d="M544.171-302.429l-4.788-2.765a3.965,3.965,0,0,1-1.65-3.1c-.02-1.2.686-1.75,1.58-1.236l4.786,2.765a3.959,3.959,0,0,1,1.651,3.1c.019,1.2-.688,1.752-1.58,1.236" transform="translate(-1047.931 1325.314)" fill="#5f92d3"/>
    <path id="path526" d="M561.256-292.565l-12.625-7.288a3.97,3.97,0,0,1-1.65-3.1c-.02-1.2.686-1.75,1.578-1.236l12.625,7.288a3.976,3.976,0,0,1,1.65,3.1c.02,1.2-.688,1.752-1.578,1.236" transform="translate(-1046.387 1326.205)" fill="#5f92d3"/>
    <path id="path528" d="M548.586-292.163l-9.077-5.24a3.967,3.967,0,0,1-1.65-3.1c-.02-1.2.688-1.752,1.58-1.236l9.077,5.24a3.976,3.976,0,0,1,1.65,3.1c.02,1.2-.688,1.75-1.58,1.236" transform="translate(-1047.91 1326.614)" fill="#5f92d3"/>
    <path id="path530" d="M565.469-321l-16.043-9.262a3.977,3.977,0,0,1-1.651-3.1c-.019-1.2.689-1.752,1.58-1.236l16.043,9.262a3.972,3.972,0,0,1,1.651,3.1c.02,1.2-.688,1.75-1.58,1.236" transform="translate(-1046.255 1321.13)" fill="#5f92d3"/>
    <path id="path532" d="M566.714-328l-27.961-16.144a3.973,3.973,0,0,1-1.651-3.1c-.019-1.2.689-1.752,1.58-1.236l27.963,16.144a3.976,3.976,0,0,1,1.65,3.1c.02,1.2-.688,1.75-1.58,1.236" transform="translate(-1048.036 1318.814)" fill="#5f92d3"/>
    <path id="path534" d="M555.048-319.3,539-328.561a3.979,3.979,0,0,1-1.65-3.1c-.019-1.2.688-1.752,1.58-1.238l16.045,9.265a3.966,3.966,0,0,1,1.65,3.1c.02,1.2-.688,1.752-1.58,1.236" transform="translate(-1047.994 1321.414)" fill="#5f92d3"/>
    <path id="path536" d="M574.437-315.822l-5.831-3.366a3.967,3.967,0,0,1-1.65-3.1c-.02-1.2.688-1.75,1.58-1.235l5.829,3.363a3.971,3.971,0,0,1,1.65,3.1c.02,1.2-.688,1.752-1.578,1.236" transform="translate(-1043.054 1322.979)" fill="#5f92d3"/>
    <path id="path538" d="M558.542-301.847l-19.285-11.136a3.973,3.973,0,0,1-1.651-3.1c-.019-1.2.689-1.752,1.582-1.236l19.285,11.134a3.972,3.972,0,0,1,1.65,3.1c.019,1.2-.688,1.75-1.58,1.236" transform="translate(-1047.952 1324.014)" fill="#5f92d3"/>
    <path id="path540" d="M545.678-363.292,531.5-371.477a3.961,3.961,0,0,1-1.65-3.1c-.02-1.2.686-1.752,1.578-1.238l14.178,8.187a3.966,3.966,0,0,1,1.651,3.1c.019,1.2-.689,1.752-1.582,1.236" transform="translate(-1049.246 1314.252)" fill="#5f92d3"/>
    <path id="path542" d="M549.185-284.1l-16.423-9.482a3.972,3.972,0,0,1-1.65-3.1c-.019-1.2.688-1.749,1.58-1.235l16.421,9.48a3.968,3.968,0,0,1,1.65,3.1c.02,1.2-.688,1.752-1.578,1.236" transform="translate(-1049.036 1327.251)" fill="#5f92d3"/>
    <path id="path544" d="M554.726-236.729l-9.616-5.552a3.971,3.971,0,0,1-1.651-3.1c-.019-1.2.689-1.752,1.582-1.238l9.615,5.552a3.971,3.971,0,0,1,1.65,3.1c.02,1.2-.688,1.752-1.578,1.236" transform="translate(-1046.975 1335.812)" fill="#5f92d3"/>
    <path id="path546" d="M572.876-226.25l-14.18-8.187a3.967,3.967,0,0,1-1.65-3.1c-.02-1.2.688-1.752,1.578-1.238l14.18,8.187a3.972,3.972,0,0,1,1.65,3.1c.02,1.2-.688,1.752-1.578,1.238" transform="translate(-1044.708 1337.121)" fill="#5f92d3"/>
    <path id="path548" d="M555.041-267.412l-18.353-10.6a3.971,3.971,0,0,1-1.65-3.1c-.02-1.2.688-1.75,1.58-1.236l18.353,10.6a3.963,3.963,0,0,1,1.65,3.1c.02,1.2-.688,1.752-1.58,1.238" transform="translate(-1048.38 1329.85)" fill="#5f92d3"/>
    <path id="path550" d="M542.949-258.962l-6.007-3.468a3.964,3.964,0,0,1-1.651-3.1c-.02-1.2.689-1.752,1.58-1.238l6.007,3.47a3.967,3.967,0,0,1,1.65,3.1c.02,1.2-.688,1.752-1.578,1.236" transform="translate(-1048.338 1332.449)" fill="#5f92d3"/>
    <path id="path552" d="M541.048-244.625l-3.854-2.226a3.961,3.961,0,0,1-1.65-3.1c-.02-1.2.686-1.752,1.578-1.236l3.856,2.224a3.971,3.971,0,0,1,1.651,3.1c.02,1.2-.689,1.752-1.582,1.236" transform="translate(-1048.296 1335.049)" fill="#5f92d3"/>
    <path id="path554" d="M563.531-247.077l-16.042-9.265a3.964,3.964,0,0,1-1.651-3.1c-.019-1.2.688-1.752,1.58-1.236l16.043,9.263a3.964,3.964,0,0,1,1.651,3.1c.02,1.2-.688,1.752-1.582,1.238" transform="translate(-1046.578 1333.466)" fill="#5f92d3"/>
    <path id="path556" d="M564.777-254.075l-27.962-16.145a3.97,3.97,0,0,1-1.653-3.1c-.017-1.2.689-1.752,1.582-1.236l27.963,16.144a3.974,3.974,0,0,1,1.65,3.1c.019,1.2-.688,1.752-1.58,1.238" transform="translate(-1048.36 1331.15)" fill="#5f92d3"/>
    <path id="path558" d="M553.111-245.378l-16.045-9.263a3.977,3.977,0,0,1-1.65-3.1c-.02-1.2.688-1.749,1.58-1.235l16.045,9.262a3.975,3.975,0,0,1,1.65,3.1c.019,1.2-.688,1.752-1.58,1.236" transform="translate(-1048.318 1333.75)" fill="#5f92d3"/>
    <path id="path560" d="M572.5-241.9l-5.829-3.366a3.965,3.965,0,0,1-1.65-3.1c-.02-1.2.688-1.752,1.58-1.238l5.829,3.366a3.969,3.969,0,0,1,1.65,3.1c.02,1.2-.688,1.752-1.58,1.236" transform="translate(-1043.377 1335.314)" fill="#5f92d3"/>
    <path id="path562" d="M613.354-64.639,631.163-74.92l17.809,10.281L631.163-54.357,613.354-64.639" transform="translate(-1035.312 1364.496)" fill="#d9effb"/>
    <path id="path564" d="M645.75-83.593l17.808-10.282,17.809,10.282L663.558-73.31,645.75-83.593" transform="translate(-1029.905 1361.333)" fill="#d9effb"/>
    <path id="path566" d="M678.047-102.1l17.809-10.281L713.666-102.1,695.856-91.814,678.047-102.1" transform="translate(-1024.516 1358.246)" fill="#d9effb"/>
    <path id="path568" d="M663.558-75.751v-54.837L645.75-140.869v54.836l17.808,10.282" transform="translate(-1029.905 1353.491)" fill="#c23222"/>
    <path id="path570" d="M661.011-130.588l17.809-10.281v54.836L661.011-75.751v-54.837" transform="translate(-1027.359 1353.491)" fill="#263c7a"/>
    <path id="path572" d="M663.558-75.751v-54.837L645.75-140.869v54.836l17.808,10.282" transform="translate(-1029.905 1353.491)" fill="#263c7a"/>
    <path id="path574" d="M631.163-60.228V-91.073l-17.809-10.283v30.847l17.809,10.281" transform="translate(-1035.312 1360.085)" fill="#263c7a"/>
    <path id="path576" d="M628.616-91.073l17.809-10.283v30.847L628.616-60.228V-91.073" transform="translate(-1032.765 1360.085)" fill="#263c7a"/>
    <path id="path578" d="M613.354-99.886l17.809-10.28,17.809,10.28L631.163-89.6,613.354-99.886" transform="translate(-1035.312 1358.615)" fill="#0076ce"/>
    <path id="path580" d="M695.856-91.313v-75.4l-17.809-10.282v75.4l17.809,10.281" transform="translate(-1024.516 1347.463)" fill="#263c7a"/>
    <path id="path582" d="M693.309-166.712l17.809-10.282v75.4L693.309-91.313v-75.4" transform="translate(-1021.969 1347.463)" fill="#263c7a"/>
    <path id="path584" d="M678.047-175.524l17.809-10.282,17.809,10.282-17.809,10.282-17.809-10.282" transform="translate(-1024.516 1345.992)" fill="#0076ce"/>
    <path id="path586" d="M645.75-139.4l17.808-10.282L681.367-139.4l-17.809,10.281L645.75-139.4" transform="translate(-1029.905 1352.021)" fill="#0076ce"/>
    <path id="path588" d="M398.689-154.141s-5.5-2.773-8.871,1.355-8.2,13.873-8.352,20.458,5.211,6.14,8.4,4.582,12.5-15.061,13.058-17.707-.665-6.222-1.56-6.923-2.672-1.766-2.672-1.766" transform="translate(-1074.008 1351.124)" fill="#5f92d3"/>
    <path id="path590" d="M398.743-155.218l.254,5.694a3.227,3.227,0,0,1-1.608,2.963,6.337,6.337,0,0,1-4.243.66c-4.139-.665-4.509-1.848-4.805-7.542s10.4-1.775,10.4-1.775" transform="translate(-1072.861 1350.877)" fill="#d9effb"/>
    <path id="path592" d="M381.445-163.525s-5.5-2.773-8.873,1.355-8.2,13.873-8.351,20.458,5.209,6.14,8.4,4.582,12.493-15.063,13.058-17.708-.666-6.221-1.561-6.923-2.671-1.764-2.671-1.764" transform="translate(-1076.886 1349.558)" fill="#5f92d3"/>
    <path id="path594" d="M381.5-164.6l.254,5.7a3.233,3.233,0,0,1-1.609,2.963,6.341,6.341,0,0,1-4.241.66c-4.141-.666-4.511-1.85-4.805-7.544s10.4-1.775,10.4-1.775" transform="translate(-1075.739 1349.311)" fill="#d9effb"/>
    <path id="path596" d="M431.789-252.851c-1.626-26.473-28.669,3.9-28.669,3.9l-18.509,18.142-16.666,18.308a16.431,16.431,0,0,0-4.141,13.2l6.741,51.338a5.047,5.047,0,0,0,5.061,4.385,17.508,17.508,0,0,0,2.5-.218,6.272,6.272,0,0,0,5.57-6.656l-1.233-48.017,35-21.1s15.972-6.8,14.346-33.278" transform="translate(-1076.978 1332.996)" fill="#263c7a"/>
    <path id="path598" d="M449.035-244.207c-1.628-26.473-28.671,3.9-28.671,3.9l-18.508,18.142-16.668,18.308a16.428,16.428,0,0,0-4.141,13.2l6.743,51.339a5.041,5.041,0,0,0,5.059,4.384,17.1,17.1,0,0,0,2.5-.218,6.27,6.27,0,0,0,5.569-6.655l-1.232-48.017,35-21.1s15.974-6.8,14.347-33.276" transform="translate(-1074.101 1334.439)" fill="#263c7a"/>
    <path id="path600" d="M431.237-318.161c20.5,8.5,20.091,20.619,20.091,20.619s-4.015,44.431-2.646,74.1c.573,12.4-65.9,13.351-55.99-19.742,11.689-39.02,7.308-70.609,12.779-75.372s20.463-1.806,25.765.392" transform="translate(-1072.303 1323.414)" fill="#5f92d3"/>
    <path id="path602" d="M434.188-307.854c-1.072,4.164-6.525,6.357-12.182,4.9s-9.372-6.012-8.3-10.174,6.526-6.357,12.182-4.9,9.372,6.013,8.3,10.174" transform="translate(-1068.658 1323.853)" fill="#fab6a9"/>
    <path id="path604" d="M422.521-317.361c-3.808,0-6.989,1.771-7.723,4.616a5.936,5.936,0,0,0,1.438,5.237,11.687,11.687,0,0,0,6.157,3.744c5.118,1.318,10.053-.564,10.989-4.2a5.937,5.937,0,0,0-1.437-5.237,11.674,11.674,0,0,0-6.157-3.744A13.156,13.156,0,0,0,422.521-317.361Zm3.089,15.972a14.863,14.863,0,0,1-3.707-.477,13.635,13.635,0,0,1-7.187-4.4,7.839,7.839,0,0,1-1.815-6.966c1.205-4.681,7.2-7.2,13.376-5.6a13.633,13.633,0,0,1,7.187,4.4,7.84,7.84,0,0,1,1.815,6.966c-.959,3.729-4.963,6.081-9.669,6.081" transform="translate(-1068.799 1323.713)" fill="#fff"/>
    <path id="path606" d="M418.561-318.791s.177.823-.177,7.321c-.113,2.042,7.04,3.948,8.888,2.1s1.109-3.772,1.552-10.722-10.264,1.3-10.264,1.3" transform="translate(-1067.847 1323.119)" fill="#fab6a9"/>
    <path id="path608" d="M428.825-320.49s-1.761,6.444-10.442,8.918l.132-5.858,10.31-3.059" transform="translate(-1067.847 1323.517)" fill="#eb8b8a"/>
    <path id="path610" d="M436.488-332.831a15.782,15.782,0,0,1-11.33,19.23,15.783,15.783,0,0,1-19.23-11.33,15.782,15.782,0,0,1,11.33-19.23,15.783,15.783,0,0,1,19.23,11.33" transform="translate(-1070.01 1319.483)" fill="#fab6a9"/>
    <path id="path612" d="M424.849-330.1s-8.689,3.722-14.7,3.764-4.69-5-4.69-5l17.859-2.581,1.537,3.812" transform="translate(-1070.026 1321.278)" fill="#eb8b8a"/>
    <path id="path614" d="M409.331-326.384s7.569-3.214,14.209-1.873a6.963,6.963,0,0,1,4.014,2.384,2.36,2.36,0,0,0,1.214.878c1.177.266,3.1-4.618,5.392-4.729s3.817,1.509,1.939,4.512-1.242,6.368-.378,6.848,10.022-6.531,1.942-22.535-28.6-7.383-31.789-4.139c0,0-3.363,2.929-6.1.324,0,0-3.067,22.958,9.553,18.33" transform="translate(-1071.007 1318.546)" fill="#d9effb"/>
    <path id="path616" d="M436.7-272.116v12a4.887,4.887,0,0,1-1.6,3.615L410.438-234.01l2.8,4.285,32.57-23.623a6.611,6.611,0,0,0,2.7-4.666l2.2-20.938L436.7-272.116" transform="translate(-1069.173 1330.449)" fill="#fab6a9"/>
    <path id="path618" d="M442.965-306.056s7.482,11.252,10.27,40.871c0,0-12.783,4.134-20.035,1.788s9.765-42.659,9.765-42.659" transform="translate(-1065.675 1325.926)" fill="#5f92d3"/>
    <path id="path620" d="M432.215-293.863s-2.931,15.676-3.095,23.045a4.7,4.7,0,0,0,3.095,4.54v-27.585" transform="translate(-1066.056 1327.96)" fill="#4067b1"/>
    <path id="path622" d="M436.767-223.987l-5.451-.72-35.189-20.315a4.892,4.892,0,0,0-4.4.183l-24.935,14.39-3.3-.435v3.281h0a1.286,1.286,0,0,0,.757,1.156l39.877,23.023a4.884,4.884,0,0,0,4.4-.183L435.69-219.28a1.776,1.776,0,0,0,1.077-1.479v-3.228" transform="translate(-1077.006 1336.037)" fill="#5f92d3"/>
    <path id="path624" d="M410.326-237.853l-2.5-1.444H380.342l-13.549,7.818-3.3-.435v3.281h0a1.286,1.286,0,0,0,.757,1.156l39.877,23.023a4.137,4.137,0,0,0,2.272.426l3.921-33.825" transform="translate(-1077.006 1337.066)" fill="#4067b1"/>
    <path id="path626" d="M364.958-232.776l-1.462-.194v3.281h0a1.286,1.286,0,0,0,.757,1.156l.7.406v-4.649" transform="translate(-1077.006 1338.122)" fill="#5f92d3"/>
    <path id="path628" d="M398.667-208.445a5.111,5.111,0,0,0,3.739-.232v-5.583h-3.739v5.815" transform="translate(-1071.137 1341.244)" fill="#fff"/>
    <path id="path630" d="M404.133-206.261l-39.877-23.023c-1.128-.651-.987-1.788.316-2.542L391.727-247.5a4.887,4.887,0,0,1,4.4-.181l39.88,23.023c1.128.651.985,1.789-.316,2.54l-27.154,15.673a4.894,4.894,0,0,1-4.4.181" transform="translate(-1077.007 1335.594)" fill="#fff"/>
    <path id="path632" d="M402.577-210.954,369.42-230.1c-.939-.542-.821-1.487.263-2.113l14.55-8.184a4.067,4.067,0,0,1,3.659-.15L421.05-221.4c.939.542.821,1.489-.262,2.113L406.237-211.1a4.07,4.07,0,0,1-3.66.15" transform="translate(-1076.124 1336.797)" fill="#d9effb"/>
    <path id="path634" d="M389.1-248.035l-.414,2.751a20.413,20.413,0,0,0,.18,7.056l.493,2.423a3.409,3.409,0,0,0,2.731,2.68,1.881,1.881,0,0,0,2.206-1.642l.658-5.882s1.506,1.972,2.232,1.972-.813-5.891-2.455-9.224-5.631-.133-5.631-.133" transform="translate(-1072.84 1335.377)" fill="#fab6a9"/>
    <path id="path636" d="M402.9-284.524l-4.277,8.469a16.606,16.606,0,0,0-1.752,6.43l-1.857,28.967-5.631-.133-2.556-32.531a12,12,0,0,1,.146-3.008l2.92-16.5,13.007,8.3" transform="translate(-1073.119 1328.133)" fill="#fab6a9"/>
    <path id="path638" d="M403.247-201.583l-3.343-4.364-35.163-20.36a4.889,4.889,0,0,1-2.037-3.9L362.734-259l-2.021-2.641,1.9-1.1,0,0a1.287,1.287,0,0,1,1.379.079l39.85,23.073a4.893,4.893,0,0,1,2.039,3.905l-.034,31.352a1.779,1.779,0,0,1-.745,1.671l-1.856,1.074" transform="translate(-1077.471 1333.127)" fill="#263c7a"/>
    <path id="path640" d="M378.932-218.09l-2.5-1.447L362.72-243.357,362.734-259l-2.021-2.641,1.9-1.1,0,0a1.287,1.287,0,0,1,1.379.079l39.85,23.073a4.125,4.125,0,0,1,1.5,1.757L378.932-218.09" transform="translate(-1077.471 1333.127)" fill="#4067b1"/>
    <path id="path642" d="M361.609-260.469l-.9-1.171,1.9-1.1,0,0a1.287,1.287,0,0,1,1.379.079l.7.407-3.087,1.781" transform="translate(-1077.471 1333.127)" fill="#5f92d3"/>
    <path id="path644" d="M398.572-242.7a5.1,5.1,0,0,1,1.664,3.357l-3.894,2.248-1.865-3.241,4.1-2.364" transform="translate(-1071.837 1336.498)" fill="#2e4b8d"/>
    <path id="path646" d="M402.045-238.642,362.2-261.715c-1.128-.654-2.042.037-2.045,1.541l-.034,31.352a4.893,4.893,0,0,0,2.039,3.905L402-201.843c1.129.651,2.045-.039,2.045-1.543l.034-31.352a4.893,4.893,0,0,0-2.037-3.9" transform="translate(-1077.57 1333.284)" fill="#5f92d3"/>
    <path id="path648" d="M414.72-236.152l-.638,1.323a8.87,8.87,0,0,1-3.332,3.693l-3.958,2.44a3.946,3.946,0,0,1-4.041.094l-.135-.082a2.384,2.384,0,0,1-.336-3.66l4.137-4.252s-2.325,1.781-2.976,1.064c-.479-.525,2.254-3.089,4.35-3.174a8.268,8.268,0,0,0,4.125-1.73l2.8,4.285" transform="translate(-1070.651 1336.876)" fill="#fab6a9"/>
    <path id="path650" d="M406.894-318.972s-15.163,16.5-21.28,31.636c0,0,5.186,9.341,17.879,13.007s3.4-44.643,3.4-44.643" transform="translate(-1073.316 1323.77)" fill="#5f92d3"/>
    <path id="path652" d="M398.964-278.157l2.458-23.742-5.79,22.242a33.123,33.123,0,0,0,3.332,1.5" transform="translate(-1071.644 1326.619)" fill="#4067b1"/>
    <path id="path654" d="M414.168-321.666l-4.074-1.118s1.944,3.059,4.783,3.839,3.284-1.623,3.284-1.623l-3.993-1.1" transform="translate(-1069.23 1323.134)" fill="#fff"/>
    <path id="path656" d="M432.886-327.092a2.268,2.268,0,0,1-2.269,2.269,2.268,2.268,0,0,1-2.269-2.269,2.268,2.268,0,0,1,2.269-2.268,2.268,2.268,0,0,1,2.269,2.268" transform="translate(-1066.184 1322.037)" fill="#fff"/>
    <path id="path658" d="M720.843-329.506l4.1,8.341,8.34-4.1-4.1-8.341Zm2.688,12.49-6.834-13.9,13.9-6.834,6.834,13.9-13.9,6.834" transform="translate(-1018.066 1320.636)" fill="#263c7a"/>
    <path id="path660" d="M465.914-68.9c-6.978,4.027-18.292,4.027-25.271,0s-6.978-10.563,0-14.59,18.292-4.029,25.271,0S472.892-72.928,465.914-68.9Zm14.851-23.166c-15.18-8.764-39.793-8.764-54.973,0s-15.179,22.974,0,31.74,39.793,8.764,54.973,0,15.177-22.974,0-31.74" transform="translate(-1068.511 1360.538)" fill="#d9effb"/>
    <path id="path662" d="M420.2-94.468l13.865.217a14.74,14.74,0,0,1,4.379-3.682c7.626-4.4,19.615-4.743,27.923-1.027l8.239-7.748,12.688.2c-.627-.41-1.272-.814-1.95-1.207-17.631-10.18-46.217-10.18-63.848,0a33.577,33.577,0,0,0-7.934,6.181l6.638,7.071" transform="translate(-1068.652 1357.749)" fill="#263c7a"/>
    <path id="path664" d="M478.564-125.006v20.137l-12.688-.2V-125.2l12.688.195" transform="translate(-1059.922 1356.106)" fill="#263c7a"/>
    <path id="path666" d="M458.815-117.454v20.137l8.239-7.748V-125.2l-8.239,7.746" transform="translate(-1061.1 1356.106)" fill="#263c7a"/>
    <path id="path668" d="M431.14-112.953v20.136l18.241-14.865,14.061,10.155v-20.137l-12.947-6.28s-17.823,5.456-18.749,5.688-.606,5.3-.606,5.3" transform="translate(-1059.727 1356.316)" fill="#263c7a"/>
    <path id="path670" d="M419.25-114.71v20.135l13.865.217v-20.136l-13.865-.217" transform="translate(-1061.703 1357.856)" fill="#263c7a"/>
    <path id="path672" d="M413.561-120.771v20.136l6.638,7.071V-113.7l-6.638-7.072" transform="translate(-1068.652 1356.845)" fill="#263c7a"/>
    <path id="path674" d="M420.2-111.724l13.865.217a14.758,14.758,0,0,1,4.379-3.682c7.626-4.4,19.615-4.743,27.923-1.029l8.239-7.746,12.688.195c-.627-.409-1.272-.813-1.95-1.2-17.631-10.181-46.217-10.181-63.848,0a33.591,33.591,0,0,0-7.934,6.18l6.638,7.072" transform="translate(-1068.652 1354.87)" fill="#0076ce"/>
    <path id="path676" d="M462.393-116.438v18.51l12-2.875s-.7-10.83-.96-11.12-11.043-4.514-11.043-4.514" transform="translate(-1060.503 1357.568)" fill="#5f92d3"/>
    <path id="path678" d="M454.61-100.575V-80.44l1.3,1.382,8.462-4.878s-1.314-15.371-1.468-15.681-8.29-.959-8.29-.959" transform="translate(-1061.802 1360.215)" fill="#263c7a"/>
    <path id="path680" d="M470.949-105.031l-7.257,6.823c6.044,4.783,5.33,11.526-2.149,15.844A25.779,25.779,0,0,1,454.61-79.7l7.5,7.991-6.645,6.249a60.384,60.384,0,0,0,23.029-7.122c15.156-8.75,17.269-22.171,6.367-32.235l-13.912-.217" transform="translate(-1061.802 1359.472)" fill="#4067b1"/>
    <path id="path682" d="M455.343-84.585v20.135L471.8-70.8l19.789-18.879-.073-21.383-20.937,16.6-15.233,9.885" transform="translate(-1061.68 1358.465)" fill="#4067b1"/>
    <path id="path684" d="M470.949-122.287l-7.257,6.825c6.044,4.782,5.33,11.525-2.149,15.842a25.78,25.78,0,0,1-6.933,2.668l7.5,7.991-6.645,6.249a60.392,60.392,0,0,0,23.029-7.123c15.156-8.751,17.269-22.171,6.367-32.235l-13.912-.217" transform="translate(-1061.802 1356.592)" fill="#d9effb"/>
    <path id="path686" d="M463.015-72.624l-6.61-7.043c-6.137.373-12.5-.8-17.207-3.51-4.856-2.805-6.858-6.635-6.007-10.284l-15.744-.244-6.052-6.449c-5.295,9.087-1.682,19.523,10.856,26.761,9.214,5.32,21.418,7.853,33.487,7.613l7.277-6.843" transform="translate(-1069.407 1360.285)" fill="#4067b1"/>
    <path id="path688" d="M455.737-84.25v20.135l-46.7-25.878v-20.147l6.819,2.757,39.88,23.132" transform="translate(-1069.407 1358.619)" fill="#4067b1"/>
    <path id="path690" d="M456.336-93.817v20.136l-7.277,6.843V-86.973l7.277-6.844" transform="translate(-1062.728 1361.343)" fill="#263c7a"/>
    <path id="path692" d="M463.015-89.88l-6.61-7.044c-6.137.373-12.5-.794-17.207-3.51-4.856-2.805-6.858-6.634-6.007-10.283l-15.744-.245-6.052-6.448c-5.295,9.087-1.682,19.522,10.856,26.761,9.214,5.321,21.418,7.854,33.487,7.614l7.277-6.844" transform="translate(-1069.407 1357.406)" fill="#5f92d3"/>
    <path id="path694" d="M367-386.274a6.978,6.978,0,0,0-6.971,6.971A6.977,6.977,0,0,0,367-372.332a6.978,6.978,0,0,0,6.971-6.971A6.979,6.979,0,0,0,367-386.274Zm0,17.039A10.08,10.08,0,0,1,356.934-379.3,10.08,10.08,0,0,1,367-389.372,10.08,10.08,0,0,1,377.072-379.3,10.08,10.08,0,0,1,367-369.234" transform="translate(-1078.101 1312.022)" fill="#5f92d3"/>
    <path id="path696" d="M346.692-101.544a7.309,7.309,0,0,1-7.308,7.308,7.308,7.308,0,0,1-7.308-7.308,7.307,7.307,0,0,1,7.308-7.308,7.309,7.309,0,0,1,7.308,7.308" transform="translate(-1082.25 1358.834)" fill="#d9effb"/>
    <path id="path698" d="M667.3-459.741a8.71,8.71,0,0,1-8.709,8.709,8.709,8.709,0,0,1-8.71-8.709,8.71,8.71,0,0,1,8.71-8.71,8.711,8.711,0,0,1,8.709,8.71" transform="translate(-1029.217 1298.826)" fill="#d9effb"/>
    <path id="path700" d="M631.249-380.308,589.83-404.219a2.123,2.123,0,0,0-2.141-.173l0-.026-4.018,2.322s1.78.647,2.824,1.032V-370.9a7.982,7.982,0,0,0,3.332,6.366l39.59,22.857v3.538l4.058-2.338-.023-.008a2.947,2.947,0,0,0,1.128-2.655v-30.8a7.988,7.988,0,0,0-3.333-6.37" transform="translate(-1040.264 1309.48)" fill="#0076ce"/>
    <path id="path702" d="M627.339-338.6,585.92-362.512a7.983,7.983,0,0,1-3.332-6.368v-30.8c0-2.454,1.492-3.583,3.332-2.522l41.419,23.914a7.981,7.981,0,0,1,3.332,6.368v30.8c0,2.454-1.492,3.583-3.332,2.519" transform="translate(-1040.446 1309.816)" fill="#263c7a"/>
    <path id="path704" d="M598.181-376.594c0,1.781-1.253,2.5-2.8,1.614a6.18,6.18,0,0,1-2.794-4.841c0-1.781,1.252-2.5,2.794-1.613a6.178,6.178,0,0,1,2.8,4.839" transform="translate(-1038.776 1313.283)" fill="#fff"/>
    <path id="path706" d="M605.434-372.4c0,1.783-1.25,2.5-2.793,1.613a6.175,6.175,0,0,1-2.8-4.841c0-1.781,1.252-2.5,2.8-1.613a6.176,6.176,0,0,1,2.793,4.841" transform="translate(-1037.566 1313.982)" fill="#fff"/>
    <path id="path708" d="M612.69-368.214c0,1.781-1.25,2.5-2.794,1.613a6.18,6.18,0,0,1-2.794-4.841c0-1.783,1.252-2.5,2.794-1.613a6.173,6.173,0,0,1,2.794,4.841" transform="translate(-1036.355 1314.681)" fill="#fff"/>
    <path id="path710" d="M458.529-420.69l-40.634-23.458a2.08,2.08,0,0,0-2.1-.169l0-.025-3.941,2.277s1.744.635,2.77,1.012v29.589a7.832,7.832,0,0,0,3.268,6.249l38.837,22.421v3.473l3.982-2.293-.022-.008a2.9,2.9,0,0,0,1.1-2.607v-30.214a7.835,7.835,0,0,0-3.268-6.247" transform="translate(-1068.936 1302.818)" fill="#5f92d3"/>
    <path id="path712" d="M454.694-379.773,414.06-403.232a7.831,7.831,0,0,1-3.27-6.249v-30.212c0-2.407,1.464-3.513,3.27-2.471l40.634,23.46a7.828,7.828,0,0,1,3.268,6.246v30.214c0,2.407-1.464,3.513-3.268,2.471" transform="translate(-1069.114 1303.147)" fill="#d9effb"/>
    <path id="path714" d="M426.087-417.046c0,1.749-1.228,2.457-2.743,1.583a6.06,6.06,0,0,1-2.74-4.749c0-1.747,1.227-2.457,2.74-1.583a6.062,6.062,0,0,1,2.743,4.749" transform="translate(-1067.477 1306.549)" fill="#fff"/>
    <path id="path716" d="M433.2-412.936c0,1.749-1.227,2.457-2.742,1.582a6.059,6.059,0,0,1-2.742-4.748c0-1.747,1.228-2.457,2.742-1.583a6.06,6.06,0,0,1,2.742,4.749" transform="translate(-1066.289 1307.235)" fill="#fff"/>
    <path id="path718" d="M440.321-408.828c0,1.749-1.227,2.457-2.74,1.583a6.06,6.06,0,0,1-2.742-4.749c0-1.749,1.227-2.457,2.742-1.582a6.06,6.06,0,0,1,2.74,4.748" transform="translate(-1065.101 1307.921)" fill="#fff"/>
  </g>
</svg>
